<?xml version="1.0" encoding="UTF-8" standalone="no"?>
<!-- Created with Inkscape (http://www.inkscape.org/) -->

<svg
   xmlns:dc="http://purl.org/dc/elements/1.1/"
   xmlns:cc="http://creativecommons.org/ns#"
   xmlns:rdf="http://www.w3.org/1999/02/22-rdf-syntax-ns#"
   xmlns:svg="http://www.w3.org/2000/svg"
   xmlns="http://www.w3.org/2000/svg"
   xmlns:sodipodi="http://sodipodi.sourceforge.net/DTD/sodipodi-0.dtd"
   xmlns:inkscape="http://www.inkscape.org/namespaces/inkscape"
   width="744.09448819"
   height="1052.3622047"
   id="svg6843"
   version="1.1"
   inkscape:version="0.48.0 r9654"
   sodipodi:docname="New document 1">
  <defs
     id="defs6845" />
  <sodipodi:namedview
     id="base"
     pagecolor="#ffffff"
     bordercolor="#666666"
     borderopacity="1.0"
     inkscape:pageopacity="0.0"
     inkscape:pageshadow="2"
     inkscape:zoom="0.46165914"
     inkscape:cx="498.0738"
     inkscape:cy="581.91888"
     inkscape:document-units="px"
     inkscape:current-layer="layer1"
     showgrid="false"
     inkscape:window-width="907"
     inkscape:window-height="666"
     inkscape:window-x="181"
     inkscape:window-y="88"
     inkscape:window-maximized="0" />
  <metadata
     id="metadata6848">
    <rdf:RDF>
      <cc:Work
         rdf:about="">
        <dc:format>image/svg+xml</dc:format>
        <dc:type
           rdf:resource="http://purl.org/dc/dcmitype/StillImage" />
        <dc:title></dc:title>
      </cc:Work>
    </rdf:RDF>
  </metadata>
  <g
     inkscape:label="Layer 1"
     inkscape:groupmode="layer"
     id="layer1">
    <rect
       style="fill:#6699cc;fill-opacity:1;stroke:none"
       id="rect6859"
       width="537.14288"
       height="537.14288"
       x="46.430382"
       y="166.71764" />
    <path
       sodipodi:type="star"
       style="fill:#ffffff;fill-opacity:1;stroke:none"
       id="path6853"
       sodipodi:sides="5"
       sodipodi:cx="191.42857"
       sodipodi:cy="220.93361"
       sodipodi:r1="110.89338"
       sodipodi:r2="295.65561"
       sodipodi:arg1="0.82242743"
       sodipodi:arg2="1.4507459"
       inkscape:flatsided="false"
       inkscape:rounded="0.15"
       inkscape:randomized="0"
       d="m 266.88535,302.19625 c -23.7438,22.04741 -7.8801,208.38454 -40.04839,212.26502 C 194.66867,518.34174 165.76622,333.57748 137.46064,317.80881 109.15506,302.04013 -63.159924,374.70875 -76.791024,345.31402 -90.422124,315.91929 76.367782,231.33613 82.617778,199.54314 88.867774,167.75014 -33.492449,26.324691 -9.7486413,4.2772742 13.995168,-17.770144 145.97945,114.71885 178.14774,110.83837 210.31603,106.9579 307.00823,-53.116458 335.31381,-37.347782 363.6194,-21.579104 278.40026,144.88675 292.03136,174.28148 c 13.6311,29.39473 195.7504,71.88879 189.5004,103.68179 -6.25,31.79299 -190.9026,2.18556 -214.64641,24.23298 z"
       inkscape:transform-center-x="29.18538"
       inkscape:transform-center-y="-49.561291"
       transform="matrix(0.81762111,-0.47205377,0.47205377,0.81762111,55.515548,370.40756)" />
    <path
       sodipodi:type="star"
       style="fill:#000000;fill-opacity:1;stroke:none"
       id="path6857"
       sodipodi:sides="4"
       sodipodi:cx="317.14285"
       sodipodi:cy="443.79074"
       sodipodi:r1="269.26962"
       sodipodi:r2="62.302261"
       sodipodi:arg1="1.2356238"
       sodipodi:arg2="2.0067858"
       inkscape:flatsided="false"
       inkscape:rounded="0.41"
       inkscape:randomized="0"
       d="M 405.71428,698.07647 C 317.59441,730.18753 375.2739,541.07924 290.83214,500.26479 205.8471,459.18776 95.174775,621.04896 62.857122,532.36216 30.746063,444.2423 219.85436,501.92179 260.6688,417.48003 301.74584,332.49499 139.88463,221.82266 228.57143,189.50501 c 88.11986,-32.11106 30.44037,156.99724 114.88214,197.81168 84.98503,41.07704 195.65736,-120.78417 227.97501,-32.09737 32.11106,88.11986 -156.99723,30.44037 -197.81168,114.88213 -41.07703,84.98504 120.78418,195.65737 32.09738,227.97502 z"
       transform="matrix(0.50022637,-0.23614868,0.23614868,0.50022637,56.308854,357.24878)" />
  </g>
</svg>
